<?xml version="1.0" encoding="utf-8"?>
<!-- Generated by IcoMoon.io -->
<!DOCTYPE svg PUBLIC "-//W3C//DTD SVG 1.1//EN" "http://www.w3.org/Graphics/SVG/1.1/DTD/svg11.dtd">
<svg version="1.1" xmlns="http://www.w3.org/2000/svg" xmlns:xlink="http://www.w3.org/1999/xlink" width="512" height="512" viewBox="0 0 512 512">
<g>
</g>
	<path d="M407.531 38.185l20.398 62.659h65.546l-53.176 38.605 20.388 63.376-53.156-39.342-53.187 39.342 20.409-63.375-53.904-38.605h66.284z" fill="#000000" />
	<path d="M306.279 323.041c41.523 0 75.755 33.495 75.755 75.745 0 41.534-34.243 75.018-75.755 75.018-41.543 0-75.755-33.495-75.755-75.018 0-42.25 34.222-75.745 75.755-75.745z" fill="#000000" />
	<path d="M178.8 108.124c24.034 0 43.684 19.681 43.684 43.715 0 24.023-19.641 43.694-43.684 43.694s-43.725-19.671-43.725-43.694c0-24.043 19.691-43.715 43.725-43.715z" fill="#000000" />
	<path d="M232.694 169.287c64.102 28.446 129.669 69.222 182.108 113.674 101.99 88.135 113.644 158.802 26.245 158.802-16.036 0-34.253-2.192-53.913-6.553 5.099-11.643 8.018-24.054 8.018-36.423 0-8.745-1.474-16.015-2.918-23.317 24.77-12.38 10.219-48.804-40.069-92.508-40.786-34.959-96.174-65.577-143.504-82.32 11.673-7.291 20.377-18.207 24.034-31.355z" fill="#000000" />
	<path d="M70.974 124.867c16.025 0 34.212 2.192 54.62 6.574-2.181 6.564-3.645 13.118-3.645 20.398 0 13.107 4.373 25.508 12.4 35.676-42.977 5.12-32.788 45.906 25.498 95.447 24.043 20.398 52.439 39.332 81.593 55.368-8.745 8.724-14.582 18.923-18.965 30.567-44.421-24.75-88.125-53.873-125.287-85.945-101.97-87.419-113.633-158.085-26.215-158.085z" fill="#000000" />
</svg>
